<?xml version="1.0" standalone="no"?>
<!DOCTYPE svg PUBLIC "-//W3C//DTD SVG 20010904//EN"
 "http://www.w3.org/TR/2001/REC-SVG-20010904/DTD/svg10.dtd">
<svg version="1.0" xmlns="http://www.w3.org/2000/svg"
 width="1252.000000pt" height="556.000000pt" viewBox="0 0 1252.000000 556.000000"
 preserveAspectRatio="xMidYMid meet">
<metadata>
Created by potrace 1.16, written by Peter Selinger 2001-2019
</metadata>
<g transform="translate(0.000000,556.000000) scale(0.100000,-0.100000)"
fill="#000000" stroke="none">
<path d="M11688 5212 c-428 -174 -775 -318 -772 -321 3 -3 85 -37 182 -76
l177 -70 87 -215 c48 -118 92 -228 98 -245 l10 -29 128 127 128 128 219 -177
c121 -97 221 -172 222 -168 4 14 313 1355 313 1360 0 2 -3 4 -7 3 -5 0 -358
-143 -785 -317z m542 -378 c-61 -263 -114 -486 -118 -495 -6 -13 -53 21 -234
166 l-227 183 342 315 c188 174 343 314 344 313 2 -1 -47 -218 -107 -482z
m-355 347 c-6 -5 -136 -85 -290 -178 l-280 -169 -68 26 c-38 14 -68 30 -68 35
0 6 691 293 711 295 2 0 0 -4 -5 -9z m145 -25 c0 -2 -106 -101 -235 -221 -130
-119 -239 -224 -244 -234 -4 -9 -18 -58 -31 -109 -12 -51 -26 -94 -30 -97 -7
-5 -116 263 -109 269 5 5 643 396 647 396 1 0 2 -2 2 -4z"/>
<path d="M1254 5496 c-22 -7 -56 -21 -74 -32 -18 -10 -269 -282 -558 -604
-434 -484 -530 -596 -556 -650 l-31 -65 0 -1910 c0 -1573 2 -1917 13 -1950 35
-102 122 -189 227 -226 53 -18 107 -19 1795 -19 l1740 0 67 22 c90 30 179 115
211 201 l22 58 0 1207 0 1207 -155 -155 -155 -155 0 -1032 0 -1033 -1725 0
-1725 0 0 1815 0 1814 68 -5 c314 -24 664 -111 920 -229 86 -40 117 -43 172
-15 47 24 70 64 70 122 0 24 -29 331 -64 683 -35 352 -62 643 -59 648 2 4 530
7 1174 7 l1169 0 0 -382 0 -383 155 155 156 155 -3 255 c-3 252 -3 256 -29
310 -33 69 -94 132 -162 168 l-52 27 -1285 2 c-1024 1 -1293 -1 -1326 -11z
m-57 -938 c23 -227 40 -414 38 -416 -2 -2 -48 10 -103 27 -126 39 -291 77
-459 104 l-132 22 302 337 c166 186 305 338 308 338 3 0 24 -186 46 -412z"/>
<path d="M4786 5134 c-39 -12 -69 -35 -150 -114 l-101 -99 377 -378 378 -378
84 84 c112 111 140 164 140 256 0 110 -19 137 -276 391 -207 206 -227 223
-277 238 -66 19 -111 19 -175 0z"/>
<path d="M3372 3757 l-1032 -1032 148 -148 147 -147 1033 1033 1033 1033 -142
147 c-77 81 -144 147 -147 147 -4 0 -472 -465 -1040 -1033z"/>
<path d="M3822 3287 l-1022 -1022 148 -148 147 -147 1023 1023 1022 1022 -148
148 -147 147 -1023 -1023z"/>
<path d="M7995 4169 c-77 -11 -157 -51 -195 -97 -40 -48 -64 -131 -57 -193 16
-130 96 -189 319 -234 168 -35 248 -81 269 -157 22 -82 -12 -162 -83 -200 -36
-19 -59 -23 -138 -23 -84 0 -102 3 -152 28 -67 33 -112 81 -129 137 l-12 40
-59 0 -58 0 6 -27 c13 -57 53 -132 92 -171 91 -91 262 -133 414 -101 162 35
247 142 236 298 -11 149 -78 204 -326 265 -198 48 -245 75 -261 148 -25 114
57 190 206 190 118 0 211 -58 238 -149 6 -20 13 -23 61 -23 30 0 54 4 54 8 0
5 -7 29 -16 55 -19 55 -92 140 -143 166 -74 38 -173 53 -266 40z"/>
<path d="M5820 3666 l0 -496 55 0 55 0 0 210 0 210 143 0 142 0 87 -208 86
-207 61 -3 c34 -2 61 0 61 3 0 3 -40 99 -90 213 -49 114 -90 212 -90 218 0 5
16 18 36 29 107 58 158 199 123 340 -14 57 -74 126 -136 156 -46 23 -60 24
-290 27 l-243 4 0 -496z m477 371 c84 -45 117 -159 71 -247 -17 -33 -35 -51
-72 -69 -45 -23 -59 -25 -205 -25 l-156 -1 -3 170 c-1 93 0 175 3 183 8 22
319 13 362 -11z"/>
<path d="M6810 3665 l0 -495 320 0 320 0 0 50 0 50 -257 2 -258 3 -3 173 -2
172 230 0 230 0 0 50 0 50 -230 0 -230 0 0 170 0 170 260 0 260 0 0 50 0 50
-320 0 -320 0 0 -495z"/>
<path d="M8750 3807 c0 -387 5 -432 58 -511 32 -47 105 -100 165 -118 23 -7
91 -13 152 -13 99 1 116 4 173 29 70 32 123 85 156 155 20 44 21 62 24 429 l3
382 -55 0 -55 0 -3 -367 c-3 -355 -4 -369 -25 -408 -47 -89 -107 -120 -228
-120 -127 1 -190 36 -232 130 -16 35 -18 81 -21 403 l-4 362 -54 0 -54 0 0
-353z"/>
<path d="M9820 3665 l0 -495 55 0 55 0 2 458 3 457 153 -458 154 -458 56 3 56
3 153 460 152 460 0 -462 1 -463 60 0 60 0 0 495 0 495 -107 0 -108 0 -129
-413 c-111 -354 -146 -455 -146 -425 0 4 -58 192 -130 418 -71 226 -130 413
-130 416 0 2 -47 4 -105 4 l-105 0 0 -495z"/>
<path d="M11120 3665 l0 -495 320 0 320 0 0 50 0 50 -262 2 -263 3 0 170 0
170 233 3 232 2 0 50 0 50 -232 2 -233 3 0 165 0 165 263 3 262 2 0 50 0 50
-320 0 -320 0 0 -495z"/>
<path d="M810 2775 l0 -45 430 0 430 0 0 45 0 45 -430 0 -430 0 0 -45z"/>
<path d="M2185 2529 c-8 -19 -130 -299 -269 -624 l-253 -590 -427 -3 -426 -2
0 -40 0 -40 1230 0 1230 0 0 40 0 40 -767 2 -768 3 590 253 c325 139 593 257
597 260 4 4 -156 171 -357 372 l-364 364 -16 -35z"/>
<path d="M5750 1875 l0 -495 193 0 c292 1 385 19 458 92 45 46 62 86 67 164 9
144 -52 231 -183 259 l-30 7 40 13 c48 17 101 74 115 124 16 57 12 151 -9 196
-10 22 -34 55 -54 72 -62 55 -112 63 -369 63 l-228 0 0 -495z m474 370 c61
-31 81 -65 81 -138 0 -49 -5 -69 -23 -95 -43 -59 -69 -67 -254 -70 l-168 -4 0
167 0 166 163 -3 c138 -3 168 -6 201 -23z m55 -430 c49 -29 73 -67 79 -124 6
-71 -19 -135 -67 -166 -47 -32 -158 -47 -311 -43 l-115 3 -3 178 -2 179 192
-4 c171 -3 197 -5 227 -23z"/>
<path d="M6770 2017 c0 -387 5 -432 58 -511 32 -47 105 -100 165 -118 23 -7
91 -13 152 -13 99 1 116 4 173 29 70 32 123 85 156 155 20 44 21 62 24 429 l3
382 -55 0 -55 0 -3 -367 c-3 -355 -4 -369 -25 -408 -47 -89 -107 -120 -228
-120 -127 1 -190 36 -232 130 -16 35 -18 81 -21 403 l-4 362 -54 0 -54 0 0
-353z"/>
<path d="M7840 1875 l0 -495 55 0 55 0 0 495 0 495 -55 0 -55 0 0 -495z"/>
<path d="M8300 1875 l0 -495 280 0 280 0 0 50 0 50 -222 2 -223 3 -3 443 -2
442 -55 0 -55 0 0 -495z"/>
<path d="M9120 1874 l0 -497 193 6 c262 7 357 36 456 135 85 86 124 202 124
362 -1 211 -79 357 -231 434 -88 45 -160 56 -359 56 l-183 0 0 -496z m450 368
c143 -56 210 -173 210 -368 0 -174 -54 -283 -170 -342 -54 -27 -84 -34 -171
-43 -58 -6 -128 -9 -155 -7 l-49 3 -3 394 -2 393 142 -4 c115 -4 154 -9 198
-26z"/>
<path d="M10200 1875 l0 -495 320 0 320 0 0 50 0 50 -257 2 -258 3 -3 173 -2
172 230 0 230 0 0 50 0 50 -230 0 -230 0 0 170 0 170 260 0 260 0 0 50 0 50
-320 0 -320 0 0 -495z"/>
<path d="M11140 1876 l0 -496 55 0 55 0 0 210 0 211 142 -3 141 -3 86 -205 87
-205 63 -3 c49 -2 62 0 58 10 -3 7 -46 107 -96 222 -50 115 -90 210 -89 211 2
2 21 12 43 23 76 38 122 114 132 215 11 125 -42 228 -145 278 -45 23 -59 24
-289 27 l-243 4 0 -496z m475 368 c99 -51 123 -186 49 -274 -46 -53 -81 -63
-254 -64 l-155 -1 -3 183 -2 183 162 -3 c142 -3 168 -6 203 -24z"/>
<path d="M810 2025 l0 -45 450 0 450 0 0 45 0 45 -450 0 -450 0 0 -45z"/>
</g>
</svg>
