<svg xmlns="http://www.w3.org/2000/svg" xmlns:xlink="http://www.w3.org/1999/xlink" width="500" zoomAndPan="magnify" viewBox="0 0 375 374.999991" height="500" preserveAspectRatio="xMidYMid meet" version="1.0"><defs><g/><clipPath id="6e4ba55288"><path d="M 17.761719 107 L 120 107 L 120 244.597656 L 17.761719 244.597656 Z M 17.761719 107 " clip-rule="nonzero"/></clipPath><clipPath id="3248adf5f2"><path d="M 130 116 L 155.761719 116 L 155.761719 141 L 130 141 Z M 130 116 " clip-rule="nonzero"/></clipPath><clipPath id="082117e6d8"><path d="M 289.414062 106.597656 L 329.164062 106.597656 L 329.164062 141.097656 L 289.414062 141.097656 Z M 289.414062 106.597656 " clip-rule="nonzero"/></clipPath></defs><g clip-path="url(#6e4ba55288)"><path fill="#264412" d="M 45.851562 120.550781 L 47.941406 141.566406 C 42.976562 139.886719 36.675781 138.335938 30.503906 137.699219 Z M 111.929688 236.074219 L 25.753906 236.074219 L 25.753906 145.351562 C 35.375 145.539062 46.417969 149.101562 50.769531 151.28125 L 51.558594 151.671875 C 54.015625 152.902344 56.875 150.9375 56.597656 148.199219 L 53.320312 115.125 L 111.929688 115.125 L 111.929688 134.207031 L 119.902344 126.246094 L 119.902344 116.003906 C 119.902344 111.125 115.9375 107.152344 111.050781 107.152344 L 51.101562 107.152344 C 48.589844 107.152344 46.1875 108.230469 44.507812 110.105469 L 20.039062 137.445312 C 18.59375 139.070312 17.785156 141.167969 17.785156 143.347656 L 17.785156 235.191406 C 17.785156 240.082031 21.746094 244.042969 26.636719 244.042969 L 111.050781 244.042969 C 115.9375 244.042969 119.902344 240.082031 119.902344 235.191406 L 119.902344 176.433594 L 111.929688 184.394531 L 111.929688 236.074219 " fill-opacity="1" fill-rule="nonzero"/></g><path fill="#846745" d="M 83.289062 191.964844 L 79.273438 187.949219 L 72.007812 180.691406 L 58.453125 212.171875 L 57.976562 213.257812 L 60.503906 212.171875 L 90.554688 199.230469 L 83.289062 191.964844 " fill-opacity="1" fill-rule="nonzero"/><path fill="#846745" d="M 111.929688 140.359375 L 75.394531 176.898438 L 82.863281 184.367188 L 111.929688 155.289062 L 134.152344 133.066406 L 134.671875 132.558594 L 127.203125 125.089844 L 111.929688 140.359375 " fill-opacity="1" fill-rule="nonzero"/><path fill="#846745" d="M 119.902344 155.355469 L 86.871094 188.382812 L 94.339844 195.851562 L 111.929688 178.253906 L 119.902344 170.28125 L 145.640625 144.554688 L 138.167969 137.085938 L 119.902344 155.355469 " fill-opacity="1" fill-rule="nonzero"/><g clip-path="url(#3248adf5f2)"><path fill="#846745" d="M 153.042969 127.546875 L 143.691406 118.203125 C 142.363281 116.878906 140.628906 116.210938 138.894531 116.210938 C 137.160156 116.210938 135.414062 116.878906 134.097656 118.203125 L 130.273438 122.015625 L 140.8125 132.558594 L 141.75 133.503906 L 149.21875 140.964844 L 153.042969 137.148438 C 155.6875 134.496094 155.6875 130.199219 153.042969 127.546875 " fill-opacity="1" fill-rule="nonzero"/></g><path fill="#264412" d="M 37.160156 214.34375 L 98.71875 214.34375 L 98.71875 212.171875 L 60.503906 212.171875 L 57.976562 213.257812 L 58.453125 212.171875 L 37.160156 212.171875 L 37.160156 214.34375 " fill-opacity="1" fill-rule="nonzero"/><path fill="#264412" d="M 58.886719 174.511719 L 37.160156 174.511719 L 37.160156 176.683594 L 58.886719 176.683594 L 58.886719 174.511719 " fill-opacity="1" fill-rule="nonzero"/><path fill="#264412" d="M 37.160156 195.519531 L 59.789062 195.519531 L 59.789062 193.339844 L 37.160156 193.339844 L 37.160156 195.519531 " fill-opacity="1" fill-rule="nonzero"/><g fill="#cf5425" fill-opacity="1"><g transform="translate(159.899302, 165.863999)"><g><path d="M 15.28125 -11.070312 C 18.089844 -12.082031 19.753906 -14.433594 19.753906 -17.796875 C 19.753906 -22.59375 16.621094 -24.914062 11.851562 -24.914062 L 2.578125 -24.914062 L 2.578125 0 L 5.582031 0 L 5.582031 -10.515625 L 12.375 -10.515625 L 16.785156 0 L 20.082031 0 Z M 5.582031 -13.191406 L 5.582031 -22.203125 L 11.460938 -22.203125 C 14.824219 -22.203125 16.785156 -20.570312 16.785156 -17.699219 C 16.785156 -14.792969 14.890625 -13.191406 11.460938 -13.191406 Z M 5.582031 -13.191406 "/></g></g></g><g fill="#cf5425" fill-opacity="1"><g transform="translate(184.7097, 165.863999)"><g><path d="M 18.675781 0 L 18.675781 -2.710938 L 5.582031 -2.710938 L 5.582031 -11.167969 L 17.144531 -11.167969 L 17.144531 -13.84375 L 5.582031 -13.84375 L 5.582031 -22.203125 L 18.675781 -22.203125 L 18.675781 -24.914062 L 2.578125 -24.914062 L 2.578125 0 Z M 18.675781 0 "/></g></g></g><g fill="#cf5425" fill-opacity="1"><g transform="translate(208.083776, 165.863999)"><g><path d="M 11.589844 0.328125 C 17.273438 0.328125 20.308594 -2.546875 20.308594 -6.953125 C 20.308594 -12.40625 15.835938 -13.355469 11.753906 -14.238281 C 8.425781 -14.953125 5.386719 -15.609375 5.386719 -18.644531 C 5.386719 -21.027344 7.152344 -22.5625 10.515625 -22.5625 C 13.257812 -22.5625 15.96875 -21.453125 16.683594 -18.058594 L 19.589844 -18.058594 C 18.773438 -23.183594 14.757812 -25.242188 10.546875 -25.242188 C 5.679688 -25.242188 2.382812 -22.628906 2.382812 -18.382812 C 2.382812 -13.484375 6.53125 -12.605469 10.417969 -11.789062 C 13.941406 -11.035156 17.304688 -10.316406 17.304688 -6.757812 C 17.304688 -3.789062 15.214844 -2.351562 11.722656 -2.351562 C 8.621094 -2.351562 5.191406 -3.558594 4.40625 -7.542969 L 1.371094 -7.542969 C 2.21875 -1.960938 6.660156 0.328125 11.589844 0.328125 Z M 11.589844 0.328125 "/></g></g></g><g fill="#cf5425" fill-opacity="1"><g transform="translate(233.318538, 165.863999)"><g><path d="M 11.589844 0.328125 C 17.894531 0.328125 20.832031 -3.101562 20.832031 -8.621094 L 20.832031 -24.914062 L 17.828125 -24.914062 L 17.828125 -8.621094 C 17.828125 -4.734375 15.933594 -2.351562 11.589844 -2.351562 C 7.25 -2.351562 5.355469 -4.734375 5.355469 -8.621094 L 5.355469 -24.914062 L 2.351562 -24.914062 L 2.351562 -8.621094 C 2.351562 -3.101562 5.289062 0.328125 11.589844 0.328125 Z M 11.589844 0.328125 "/></g></g></g><g fill="#cf5425" fill-opacity="1"><g transform="translate(259.793769, 165.863999)"><g><path d="M 5.582031 0 L 5.582031 -22.953125 L 13.191406 0 L 16.164062 0 L 23.769531 -23.117188 L 23.769531 0 L 26.773438 0 L 26.773438 -24.914062 L 21.355469 -24.914062 L 14.660156 -3.722656 L 7.96875 -24.914062 L 2.578125 -24.914062 L 2.578125 0 Z M 5.582031 0 "/></g></g></g><g fill="#cf5425" fill-opacity="1"><g transform="translate(292.406008, 165.863999)"><g><path d="M 18.675781 0 L 18.675781 -2.710938 L 5.582031 -2.710938 L 5.582031 -11.167969 L 17.144531 -11.167969 L 17.144531 -13.84375 L 5.582031 -13.84375 L 5.582031 -22.203125 L 18.675781 -22.203125 L 18.675781 -24.914062 L 2.578125 -24.914062 L 2.578125 0 Z M 18.675781 0 "/></g></g></g><g fill="#cf5425" fill-opacity="1"><g transform="translate(158.058294, 210.593667)"><g><path d="M 12.34375 0 C 14.433594 0 17.242188 -0.457031 19.035156 -2.1875 C 20.113281 -3.265625 20.863281 -4.800781 20.863281 -7.019531 C 20.863281 -10.515625 18.90625 -12.800781 15.378906 -13.0625 C 18.023438 -13.324219 19.625 -15.707031 19.625 -18.675781 C 19.625 -20.472656 19.101562 -22.007812 17.957031 -23.085938 C 16.71875 -24.261719 14.792969 -24.914062 11.949219 -24.914062 L 2.578125 -24.914062 L 2.578125 0 Z M 5.582031 -22.203125 L 11.296875 -22.203125 C 13.09375 -22.203125 14.597656 -21.84375 15.542969 -20.929688 C 16.195312 -20.308594 16.585938 -19.429688 16.585938 -18.1875 C 16.585938 -15.609375 14.890625 -14.105469 11.949219 -14.105469 L 5.582031 -14.105469 Z M 5.582031 -11.429688 L 12.667969 -11.429688 C 14.039062 -11.429688 17.859375 -11.429688 17.859375 -7.214844 C 17.859375 -5.679688 17.371094 -4.667969 16.652344 -4.015625 C 15.25 -2.710938 12.996094 -2.710938 12.015625 -2.710938 L 5.582031 -2.710938 Z M 5.582031 -11.429688 "/></g></g></g><g fill="#cf5425" fill-opacity="1"><g transform="translate(183.84801, 210.593667)"><g><path d="M 11.589844 0.328125 C 17.894531 0.328125 20.832031 -3.101562 20.832031 -8.621094 L 20.832031 -24.914062 L 17.828125 -24.914062 L 17.828125 -8.621094 C 17.828125 -4.734375 15.933594 -2.351562 11.589844 -2.351562 C 7.25 -2.351562 5.355469 -4.734375 5.355469 -8.621094 L 5.355469 -24.914062 L 2.351562 -24.914062 L 2.351562 -8.621094 C 2.351562 -3.101562 5.289062 0.328125 11.589844 0.328125 Z M 11.589844 0.328125 "/></g></g></g><g fill="#cf5425" fill-opacity="1"><g transform="translate(210.323242, 210.593667)"><g><path d="M 5.582031 0 L 5.582031 -24.914062 L 2.578125 -24.914062 L 2.578125 0 Z M 5.582031 0 "/></g></g></g><g fill="#cf5425" fill-opacity="1"><g transform="translate(221.782375, 210.593667)"><g><path d="M 16.75 0 L 16.75 -2.710938 L 5.582031 -2.710938 L 5.582031 -24.914062 L 2.578125 -24.914062 L 2.578125 0 Z M 16.75 0 "/></g></g></g><g fill="#cf5425" fill-opacity="1"><g transform="translate(242.283803, 210.593667)"><g><path d="M 9.402344 0 C 17.699219 0 22.238281 -4.507812 22.238281 -12.375 C 22.238281 -20.375 17.730469 -24.914062 9.4375 -24.914062 L 2.578125 -24.914062 L 2.578125 0 Z M 5.582031 -22.203125 L 9.402344 -22.203125 C 15.183594 -22.203125 19.230469 -19.65625 19.230469 -12.375 C 19.230469 -4.507812 14.597656 -2.710938 9.371094 -2.710938 L 5.582031 -2.710938 Z M 5.582031 -22.203125 "/></g></g></g><g fill="#cf5425" fill-opacity="1"><g transform="translate(269.44455, 210.593667)"><g><path d="M 18.675781 0 L 18.675781 -2.710938 L 5.582031 -2.710938 L 5.582031 -11.167969 L 17.144531 -11.167969 L 17.144531 -13.84375 L 5.582031 -13.84375 L 5.582031 -22.203125 L 18.675781 -22.203125 L 18.675781 -24.914062 L 2.578125 -24.914062 L 2.578125 0 Z M 18.675781 0 "/></g></g></g><g fill="#cf5425" fill-opacity="1"><g transform="translate(292.818624, 210.593667)"><g><path d="M 15.28125 -11.070312 C 18.089844 -12.082031 19.753906 -14.433594 19.753906 -17.796875 C 19.753906 -22.59375 16.621094 -24.914062 11.851562 -24.914062 L 2.578125 -24.914062 L 2.578125 0 L 5.582031 0 L 5.582031 -10.515625 L 12.375 -10.515625 L 16.785156 0 L 20.082031 0 Z M 5.582031 -13.191406 L 5.582031 -22.203125 L 11.460938 -22.203125 C 14.824219 -22.203125 16.785156 -20.570312 16.785156 -17.699219 C 16.785156 -14.792969 14.890625 -13.191406 11.460938 -13.191406 Z M 5.582031 -13.191406 "/></g></g></g><g clip-path="url(#082117e6d8)"><path fill="#264412" d="M 298.863281 126.355469 L 303.789062 138.777344 L 310.199219 132.308594 L 321.164062 141.101562 L 329.121094 106.597656 L 289.457031 122.664062 Z M 295.769531 122.628906 L 314.675781 114.972656 L 299.640625 124.148438 Z M 318.046875 115.652344 L 305.496094 127.238281 L 303.988281 132.980469 L 301.195312 125.933594 Z M 306.4375 132.792969 L 307.199219 129.898438 L 308.371094 130.839844 Z M 319.734375 136.96875 L 308.316406 127.808594 L 325.507812 111.933594 Z M 319.734375 136.96875 " fill-opacity="1" fill-rule="nonzero"/></g></svg>