<?xml version="1.0" standalone="no"?>
<!DOCTYPE svg PUBLIC "-//W3C//DTD SVG 20010904//EN"
 "http://www.w3.org/TR/2001/REC-SVG-20010904/DTD/svg10.dtd">
<svg version="1.0" xmlns="http://www.w3.org/2000/svg"
 width="1385.000000pt" height="556.000000pt" viewBox="0 0 1385.000000 556.000000"
 preserveAspectRatio="xMidYMid meet">
<metadata>
Created by potrace 1.16, written by Peter Selinger 2001-2019
</metadata>
<g transform="translate(0.000000,556.000000) scale(0.100000,-0.100000)"
fill="#000000" stroke="none">
<path d="M12928 5187 c-488 -193 -885 -354 -882 -356 3 -3 96 -40 207 -82
l202 -77 110 -271 c61 -149 113 -269 117 -268 4 1 70 62 148 135 92 88 144
131 152 126 7 -5 119 -91 248 -192 129 -101 236 -180 237 -175 13 42 353 1499
351 1505 -2 4 -402 -151 -890 -345z m606 -433 c-70 -297 -129 -542 -133 -545
-8 -8 -506 383 -506 397 0 12 755 697 761 691 3 -2 -52 -247 -122 -543z m-704
215 l-335 -202 -65 23 c-134 47 -160 28 301 212 228 91 419 166 424 167 6 1
-141 -90 -325 -200z m470 157 c0 -2 -120 -113 -267 -247 -148 -133 -271 -247
-274 -253 -3 -6 -19 -60 -34 -121 -16 -60 -31 -113 -35 -118 -3 -4 -28 48 -55
115 -27 68 -54 138 -62 155 l-13 33 367 219 c386 231 373 223 373 217z"/>
<path d="M1264 5506 c-22 -7 -56 -21 -74 -32 -18 -10 -269 -282 -558 -604
-434 -484 -530 -596 -556 -650 l-31 -65 0 -1910 c0 -1573 2 -1917 13 -1950 35
-102 122 -189 227 -226 53 -18 107 -19 1795 -19 l1740 0 67 22 c90 30 179 115
211 201 l22 58 0 1207 0 1207 -155 -155 -155 -155 0 -1032 0 -1033 -1725 0
-1725 0 0 1815 0 1814 68 -5 c314 -24 664 -111 920 -229 86 -40 117 -43 172
-15 47 24 70 64 70 122 0 24 -29 331 -64 683 -35 352 -62 643 -59 648 2 4 530
7 1174 7 l1169 0 0 -382 0 -383 155 155 156 155 -3 255 c-3 252 -3 256 -29
310 -33 69 -94 132 -162 168 l-52 27 -1285 2 c-1024 1 -1293 -1 -1326 -11z
m-57 -938 c23 -227 40 -414 38 -416 -2 -2 -48 10 -103 27 -126 39 -291 77
-459 104 l-132 22 302 337 c166 186 305 338 308 338 3 0 24 -186 46 -412z"/>
<path d="M4796 5144 c-39 -12 -69 -35 -150 -114 l-101 -99 377 -378 378 -378
84 84 c112 111 140 164 140 256 0 110 -19 137 -276 391 -207 206 -227 223
-277 238 -66 19 -111 19 -175 0z"/>
<path d="M3382 3767 l-1032 -1032 148 -148 147 -147 1033 1033 1033 1033 -142
147 c-77 81 -144 147 -147 147 -4 0 -472 -465 -1040 -1033z"/>
<path d="M3832 3297 l-1022 -1022 148 -148 147 -147 1023 1023 1022 1022 -148
148 -147 147 -1023 -1023z"/>
<path d="M8460 3976 c-168 -36 -270 -155 -270 -314 0 -168 95 -249 360 -307
218 -48 294 -84 331 -156 23 -45 25 -134 5 -182 -64 -155 -382 -172 -527 -27
-30 30 -54 66 -65 99 l-19 51 -68 0 -69 0 7 -32 c11 -52 59 -151 94 -190 77
-88 195 -137 351 -145 215 -11 359 55 424 196 31 67 30 229 -1 287 -55 102
-135 146 -376 204 -180 43 -226 61 -271 109 -24 25 -31 42 -34 89 -10 136 78
207 253 205 60 0 93 -6 132 -23 64 -27 127 -93 144 -149 l12 -41 68 0 68 0
-15 53 c-44 149 -162 250 -324 276 -82 14 -140 13 -210 -3z"/>
<path d="M5880 3375 l0 -595 70 0 70 0 0 255 0 255 167 -2 168 -3 105 -252
105 -252 77 -1 76 0 -110 253 c-60 138 -112 259 -115 267 -3 11 9 21 35 33 53
23 107 78 138 140 32 62 44 188 25 264 -16 65 -64 133 -120 171 -80 54 -134
62 -428 62 l-263 0 0 -595z m575 442 c58 -32 90 -74 104 -138 18 -82 -11 -179
-66 -216 -64 -44 -83 -47 -280 -51 l-193 -4 0 222 0 222 193 -4 c188 -3 193
-4 242 -31z"/>
<path d="M7070 3375 l0 -595 385 0 385 0 0 65 0 65 -315 0 -315 0 0 205 0 205
280 0 280 0 0 60 0 60 -280 0 -280 0 0 205 0 205 315 0 315 0 0 60 0 60 -385
0 -385 0 0 -595z"/>
<path d="M9400 3551 c0 -239 4 -441 10 -471 22 -115 92 -215 182 -261 121 -62
341 -65 475 -8 60 26 138 102 167 163 41 88 46 146 46 583 l0 413 -70 0 -70 0
0 -424 c0 -478 -2 -491 -72 -571 -54 -61 -108 -80 -228 -80 -55 0 -111 6 -134
14 -49 17 -111 73 -139 125 -22 40 -22 51 -25 489 l-3 447 -69 0 -70 0 0 -419z"/>
<path d="M10680 3375 l0 -595 70 0 70 0 2 553 3 552 183 -552 183 -553 68 0
68 0 156 473 c86 259 169 510 184 557 l28 85 3 -557 2 -558 70 0 70 0 0 595 0
595 -129 0 -129 0 -11 -32 c-5 -18 -76 -242 -156 -498 -81 -256 -150 -468
-154 -472 -3 -4 -78 220 -165 497 l-160 505 -128 0 -128 0 0 -595z"/>
<path d="M12250 3375 l0 -595 380 0 380 0 0 65 0 65 -315 0 -315 0 2 203 3
202 278 3 277 2 0 60 0 60 -277 2 -278 3 0 200 0 200 313 3 312 2 0 60 0 60
-380 0 -380 0 0 -595z"/>
<path d="M820 2785 l0 -45 430 0 430 0 0 45 0 45 -430 0 -430 0 0 -45z"/>
<path d="M2195 2539 c-8 -19 -130 -299 -269 -624 l-253 -590 -427 -3 -426 -2
0 -40 0 -40 1230 0 1230 0 0 40 0 40 -767 2 -768 3 590 253 c325 139 593 257
597 260 4 4 -156 171 -357 372 l-364 364 -16 -35z"/>
<path d="M820 2035 l0 -45 450 0 450 0 0 45 0 45 -450 0 -450 0 0 -45z"/>
<path d="M5790 1226 l0 -596 239 0 c132 0 275 5 318 11 226 30 344 175 311
383 -11 69 -29 109 -71 154 -31 32 -118 72 -160 72 -14 0 -2 11 38 30 96 48
139 126 137 256 -1 123 -47 198 -151 248 l-66 31 -297 3 -298 3 0 -595z m575
443 c59 -30 90 -72 99 -133 13 -88 -27 -171 -101 -207 -45 -21 -61 -23 -238
-23 l-190 -1 -3 198 -2 199 192 -4 c184 -3 195 -4 243 -29z m38 -505 c163 -55
171 -293 13 -377 -38 -20 -57 -22 -263 -25 l-223 -3 0 210 0 211 213 0 c169 0
223 -3 260 -16z"/>
<path d="M7020 1431 c0 -220 5 -424 11 -468 31 -227 178 -343 434 -343 206 0
347 79 407 229 23 55 23 64 26 514 l3 457 -65 0 -65 0 -3 -432 c-4 -484 -5
-491 -75 -563 -60 -62 -112 -80 -228 -80 -91 0 -105 3 -160 30 -71 35 -117 96
-134 175 -7 32 -11 204 -11 460 l0 410 -70 0 -70 0 0 -389z"/>
<path d="M8300 1225 l0 -595 70 0 70 0 0 595 0 595 -70 0 -70 0 0 -595z"/>
<path d="M8860 1225 l0 -595 335 0 335 0 0 65 0 65 -270 0 -270 0 0 530 0 530
-65 0 -65 0 0 -595z"/>
<path d="M9840 1224 l0 -597 228 6 c186 4 241 9 305 26 203 54 331 181 383
382 23 87 23 281 0 369 -43 165 -126 274 -260 340 -120 59 -184 70 -438 70
l-218 0 0 -596z m525 447 c173 -62 259 -190 272 -406 12 -204 -50 -360 -177
-440 -76 -47 -126 -57 -307 -63 l-173 -4 0 472 0 473 163 -5 c132 -4 173 -9
222 -27z"/>
<path d="M11140 1225 l0 -595 385 0 385 0 0 65 0 65 -315 0 -315 0 0 205 0
205 280 0 280 0 0 60 0 60 -280 0 -280 0 0 205 0 205 315 0 315 0 0 60 0 60
-385 0 -385 0 0 -595z"/>
<path d="M12270 1225 l0 -595 65 0 65 0 2 253 3 252 165 3 166 2 103 -247 c57
-137 107 -252 111 -256 4 -4 39 -7 78 -5 l71 3 -115 264 c-63 145 -113 264
-112 265 50 19 109 61 139 99 53 66 72 136 67 246 -6 155 -74 247 -214 291
-59 18 -93 20 -330 20 l-264 0 0 -595z m545 455 c60 -28 88 -54 111 -104 59
-126 0 -263 -129 -301 -41 -12 -93 -15 -223 -13 l-169 3 -3 205 c-1 112 0 211
3 218 7 20 366 12 410 -8z"/>
</g>
</svg>
